<?xml version="1.0" encoding="utf-8"?>
<!-- Generator: Adobe Illustrator 19.0.0, SVG Export Plug-In . SVG Version: 6.00 Build 0)  -->
<svg version="1.1" id="Bicycle" xmlns="http://www.w3.org/2000/svg" xmlns:xlink="http://www.w3.org/1999/xlink" x="0px" y="0px"
	 viewBox="0 0 512 512" style="enable-background:new 0 0 512 512;" xml:space="preserve">
<style type="text/css">
	.st0{fill:none;stroke:#000000;stroke-width:3;stroke-miterlimit:10;}
	.st1{fill:none;stroke:#000000;stroke-width:4;stroke-miterlimit:10;}
</style>
<g id="Frame">
	<circle id="XMLID_4_" class="st0" cx="230.5" cy="302.2" r="9.2"/>
	<line id="XMLID_6_" class="st1" x1="368.2" y1="287.4" x2="345.1" y2="180.9"/>
	<line id="XMLID_7_" class="st1" x1="344.4" y1="179.4" x2="209.9" y2="207.2"/>
	<line id="XMLID_8_" class="st1" x1="211.4" y1="207.7" x2="120.6" y2="287.4"/>
	<line id="XMLID_9_" class="st0" x1="120.6" y1="287.4" x2="211.5" y2="302.2"/>
	<line id="XMLID_10_" class="st0" x1="211.4" y1="207.7" x2="231.9" y2="302.2"/>
	<line id="XMLID_11_" class="st0" x1="211.2" y1="302.2" x2="231.9" y2="302.2"/>
	<line id="XMLID_12_" class="st0" x1="230.5" y1="302.9" x2="345.4" y2="178.9"/>
	<line id="XMLID_13_" class="st1" x1="211.4" y1="207.7" x2="198" y2="177.2"/>
	<path id="XMLID_14_" d="M208.5,173.3l-21.7,8.2c-0.8,0.3-1.8-0.1-2.1-0.9l-0.3-0.8c-0.3-0.8,0.1-1.8,0.9-2.1l21.7-8.2
		c0.8-0.3,1.8,0.1,2.1,0.9l0.3,0.8C209.7,172.1,209.3,173,208.5,173.3z"/>
	<line id="XMLID_1_" class="st1" x1="344.6" y1="180.6" x2="354.3" y2="162"/>
	<circle id="XMLID_16_" cx="354.8" cy="162.3" r="3.8"/>
</g>
<g id="Wheels">
	<circle id="XMLID_15_" class="st0" cx="120.6" cy="287.4" r="55.1"/>
	<circle id="XMLID_5_" class="st0" cx="368.2" cy="287.4" r="55.1"/>
	<circle id="XMLID_3_" cx="120.6" cy="287.4" r="14.9"/>
	<circle id="XMLID_2_" cx="368.2" cy="287.4" r="10"/>
</g>
<g id="XMLID_17_">
</g>
<g id="XMLID_18_">
</g>
<g id="XMLID_19_">
</g>
<g id="XMLID_20_">
</g>
<g id="XMLID_21_">
</g>
<g id="XMLID_22_">
</g>
</svg>
