<?xml version="1.0" encoding="utf-8"?>
<!-- Generator: Adobe Illustrator 19.0.0, SVG Export Plug-In . SVG Version: 6.00 Build 0)  -->
<svg version="1.1" xmlns="http://www.w3.org/2000/svg" xmlns:xlink="http://www.w3.org/1999/xlink" x="0px" y="0px"
	 viewBox="0 0 512 512" style="enable-background:new 0 0 512 512;" xml:space="preserve">
<g id="Layer_1">
</g>
<g id="Windows">
</g>
<g id="People">
	<path id="XMLID_6_" d="M182.1,297.9h-2c-6.6,0-12-5.4-12-12v-41.2c0-6.6,5.4-12,12-12h2c6.6,0,12,5.4,12,12v41.2
		C194.1,292.5,188.7,297.9,182.1,297.9z"/>
	<circle id="XMLID_10_" cx="181.1" cy="224.1" r="9.9"/>
	<path id="XMLID_20_" d="M106.3,297.9h-2c-6.6,0-12-5.4-12-12v-41.2c0-6.6,5.4-12,12-12h2c6.6,0,12,5.4,12,12v41.2
		C118.3,292.5,112.9,297.9,106.3,297.9z"/>
	<circle id="XMLID_19_" cx="105.3" cy="224.1" r="9.9"/>
	<path id="XMLID_13_" d="M257.5,297.9h-2c-6.6,0-12-5.4-12-12v-41.2c0-6.6,5.4-12,12-12h2c6.6,0,12,5.4,12,12v41.2
		C269.5,292.5,264.1,297.9,257.5,297.9z"/>
	<circle id="XMLID_12_" cx="256.5" cy="224.1" r="9.9"/>
	<path id="XMLID_17_" d="M408.2,297.9h-2c-6.6,0-12-5.4-12-12v-41.2c0-6.6,5.4-12,12-12h2c6.6,0,12,5.4,12,12v41.2
		C420.2,292.5,414.8,297.9,408.2,297.9z"/>
	<circle id="XMLID_16_" cx="407.2" cy="224.1" r="9.9"/>
</g>
<g id="Wheels">
	<path id="XMLID_11_" d="M468.3,168.5H43.7c-7.6,0-13.8,6.2-13.8,13.8v147.3c0,7.6,6.2,13.8,13.8,13.8h29.6
		c0.1-17.6,14.4-31.8,32-31.8c17.6,0,31.9,14.2,32,31.8h237.6c0.1-17.6,14.4-31.8,32-31.8c17.6,0,31.9,14.2,32,31.8h29.4
		c7.6,0,13.8-6.2,13.8-13.8V182.3C482.2,174.7,475.9,168.5,468.3,168.5z M138.2,267.2c0,5-4,9-9,9H80.9c-5,0-9-4-9-9v-64.4
		c0-5,4-9,9-9h48.3c5,0,9,4,9,9V267.2z M214.1,267.2c0,5-4,9-9,9h-48.3c-4.9,0-9-4-9-9v-64.4c0-5,4.1-9,9-9h48.3c5,0,9,4,9,9V267.2z
		 M289.4,267.2c0,5-4,9-9,9h-48.3c-5,0-9-4-9-9v-64.4c0-5,4-9,9-9h48.3c5,0,9,4,9,9V267.2z M364.8,267.2c0,5-4.1,9-9,9h-48.3
		c-5,0-9-4-9-9v-64.4c0-5,4-9,9-9h48.3c4.9,0,9,4,9,9V267.2z M440.1,267.2c0,5-4,9-9,9h-48.3c-5,0-9-4-9-9v-64.4c0-5,4-9,9-9h48.3
		c5,0,9,4,9,9V267.2z"/>
	<circle id="XMLID_4_" cx="407.2" cy="343.5" r="28"/>
	<circle id="XMLID_1_" cx="105.1" cy="343.5" r="28"/>
	<g id="XMLID_2_">
	</g>
	<g id="XMLID_3_">
	</g>
	<g id="XMLID_5_">
	</g>
	<g id="XMLID_7_">
	</g>
	<g id="XMLID_14_">
	</g>
	<g id="XMLID_15_">
	</g>
</g>
</svg>
