<?xml version="1.0" encoding="utf-8"?>
<!-- Generator: Adobe Illustrator 19.0.0, SVG Export Plug-In . SVG Version: 6.00 Build 0)  -->
<svg version="1.1" id="Layer_1" xmlns="http://www.w3.org/2000/svg" xmlns:xlink="http://www.w3.org/1999/xlink" x="0px" y="0px"
	 viewBox="0 0 512 512" style="enable-background:new 0 0 512 512;" xml:space="preserve">
<circle id="XMLID_8_" cx="274" cy="96.7" r="38.7"/>
<path id="XMLID_9_" d="M362.3,255.5l-55.1-27.4l-24.6-53c-13.9-31.2-21.5-26.7-23.1-26.8c-1.5-0.1-18.5-0.4-18.5-0.4
	c-13.9-1.2-24.3,8.7-24.3,8.7l-45.1,37.6c-12.1,5.8-12.7,20.8-12.7,20.8l-10.4,67.1c-0.8,13.5,12.9,15.1,12.9,15.1
	c14.3,0.9,14.8-11.7,14.8-11.7l11.1-62.4l13.9-10.9l18.2-13.7l-1.2,6l-5.3,24.5l-4.6,22.8c-8.5,21,5.8,38.5,5.8,38.5l12.1,18.4
	l23.6,37.4l24.3,38l16.8,26l15.8,23.5c1.8,0.1,11.3,20,29.8,10.7c18.4-9.4,4.1-32.8,4.1-32.8l-17.8-29.6L277,307.6l-16-26l12.5-53.4
	l6.3,8.9l7.3,11.2c1.5,5.4,17.2,10.9,17.2,10.9l31.1,14.3l15.6,6.6c0,0,18.8,5.9,21.1-6.8S362.3,255.5,362.3,255.5z"/>
<path id="XMLID_10_" d="M185.3,356.3l-40.7,59.2c-10,12.3-4.8,22.2-4.8,22.2c6.8,8.8,12.5,8.9,12.5,8.9c6.2,0.8,9.7-2.1,9.7-2.1
	c4-1.7,11.7-10.5,11.7-10.5l5.3-7.2l29.2-38.7c10.2-13.3,13-22.7,13-22.7l8-21.5l-29-39.8L185.3,356.3z"/>
<g id="XMLID_1_">
</g>
<g id="XMLID_2_">
</g>
<g id="XMLID_3_">
</g>
<g id="XMLID_4_">
</g>
<g id="XMLID_5_">
</g>
<g id="XMLID_6_">
</g>
</svg>
