<?xml version="1.0" encoding="utf-8"?>
<!-- Generator: Adobe Illustrator 19.0.0, SVG Export Plug-In . SVG Version: 6.00 Build 0)  -->
<svg version="1.1" xmlns="http://www.w3.org/2000/svg" xmlns:xlink="http://www.w3.org/1999/xlink" x="0px" y="0px"
	 viewBox="0 0 512 512" style="enable-background:new 0 0 512 512;" xml:space="preserve">
<style type="text/css">
	.st0{display:none;}
	.st1{display:inline;}
	.st2{fill:none;stroke:#000000;stroke-width:4;stroke-miterlimit:10;}
	.st3{stroke:#FFFFFF;stroke-width:4;stroke-miterlimit:10;}
</style>
<g id="Layer_1">
	<g id="XMLID_3_" class="st0">
		<path id="XMLID_31_" class="st1" d="M163.9,209.2c0-3.9-2.4-5.2-6.4-5.2h-5.1v10.8h5.1c4.2,0,6.4-1.8,6.4-5.4V209.2z"/>
		<path id="XMLID_32_" class="st1" d="M326,203.6c-5.1,0-7.9,4.1-7.9,11.6v1.7c0,7.7,2.9,11.5,8,11.5c5.2,0,7.7-4,7.7-11.6v-1.7
			C333.8,208,331.1,203.6,326,203.6z"/>
		<path id="XMLID_33_" class="st1" d="M186.8,212.2c-4.3,0-6.9,3.1-6.9,8.2v0.4c0,5.1,2.5,8.2,6.9,8.2c4.3,0,6.8-3.2,6.8-8.2v-0.3
			C193.6,215.3,191,212.2,186.8,212.2z"/>
		<path id="XMLID_36_" class="st1" d="M418.9,91.4H93.1c-2.2,0-4,1.8-4,4v241.4c0,2.2,1.8,4,4,4h325.7c2.2,0,4-1.8,4-4V95.4
			C422.8,93.2,421,91.4,418.9,91.4z M165.3,233l-8.8-13.7h-4V233h-6.3v-33.8h11.3c7.4,0,12.6,3,12.6,9.9v0.2c0,5.3-3.3,8-7.5,9.1
			l9.5,14.6H165.3z M199.4,220.7c0,7.7-5.4,12.7-12.7,12.7s-12.7-5.1-12.7-12.6v-0.4c0-7.7,5.4-12.8,12.7-12.8
			c7.2,0,12.7,5.1,12.7,12.6V220.7z M241.4,233h-5.7v-15.3c0-3.6-1.6-5.2-4.4-5.2c-2.8,0-5.4,1.9-5.4,5.7V233h-5.7v-15.3
			c0-3.6-1.6-5.2-4.4-5.2c-2.8,0-5.4,1.9-5.4,5.7V233h-5.7v-24.7h5.7v3.8c1.2-2.3,3.9-4.3,7.5-4.3c3.2,0,5.8,1.4,7,4.4
			c1.9-3.1,5.3-4.4,8.4-4.4c4.5,0,8.2,2.8,8.2,9.6V233z M280.7,204.2H266v10.1h11.5v4.9H266V233h-6.3v-33.8h21V204.2z M307.4,233
			H283v-1.1l12.8-13.5c3.2-3.4,5.2-6.4,5.2-9.6c0-3.2-1.8-5.2-5.1-5.2c-3.4,0-5.5,1.9-6.1,6.7H284c0.4-7.4,4.9-11.6,12-11.6
			c7,0,11.2,4,11.2,10c0,4.4-2.6,8.2-6.6,12.1l-7.5,7.3h14.4V233z M340.1,216.8c0,10.2-5.3,16.6-14.1,16.6
			c-8.6,0-14.2-6.3-14.2-16.5v-1.7c0-10.3,5.7-16.6,14.2-16.6c8.6,0,14.1,6.2,14.1,16.4V216.8z M365.9,199.9L353.6,233h-6.5
			l10.9-28.7h-15.7v-5.1h23.6V199.9z"/>
	</g>
	<path id="XMLID_4_" class="st2" d="M462.3,413.2H49.7c-2,0-3.7-1.7-3.7-3.7V102.6c0-2,1.7-3.7,3.7-3.7h412.6c2,0,3.7,1.7,3.7,3.7
		v306.9C466,411.5,464.3,413.2,462.3,413.2z"/>
	<g id="XMLID_7_">
		<path id="XMLID_10_" d="M98.6,227.3h17.3c11.3,0,19.2,4.6,19.2,15.1v0.3c0,8.1-5,12.2-11.4,13.8l14.5,22.3h-10.4L114.3,258h-6.1
			v20.8h-9.6V227.3z M115.9,251.1c6.4,0,9.8-2.7,9.8-8.2v-0.3c0-5.9-3.7-7.9-9.8-7.9h-7.7v16.4H115.9z"/>
		<path id="XMLID_15_" d="M141.1,260.3v-0.6c0-11.7,8.3-19.4,19.4-19.4c11,0,19.3,7.7,19.3,19.2v0.6c0,11.7-8.3,19.4-19.4,19.4
			S141.1,271.8,141.1,260.3z M170.8,260.2v-0.5c0-7.8-3.9-12.5-10.4-12.5c-6.5,0-10.4,4.7-10.4,12.5v0.6c0,7.7,3.8,12.5,10.4,12.5
			C166.9,272.7,170.8,267.9,170.8,260.2z"/>
		<path id="XMLID_18_" d="M187.6,241.1h8.7v5.8c1.8-3.5,5.9-6.6,11.4-6.6c4.9,0,8.8,2.1,10.7,6.8c2.9-4.7,8.1-6.8,12.7-6.8
			c6.9,0,12.5,4.2,12.5,14.6v23.8H235v-23.3c0-5.5-2.4-7.9-6.7-7.9s-8.3,2.9-8.3,8.6v22.5h-8.7v-23.3c0-5.5-2.4-7.9-6.7-7.9
			c-4.3,0-8.3,2.9-8.3,8.6v22.5h-8.7V241.1z"/>
		<path id="XMLID_20_" d="M271.6,227.3h31.9v7.6h-22.3v15.3h17.6v7.4h-17.6v21.1h-9.6V227.3z"/>
		<path id="XMLID_22_" d="M307,277l19.4-20.5c4.9-5.2,7.8-9.7,7.8-14.6c0-4.8-2.7-7.8-7.7-7.8c-5.1,0-8.4,3-9.2,10.2h-8.8
			c0.6-11.2,7.4-17.7,18.3-17.7c10.7,0,17,6.1,17,15.2c0,6.7-4,12.5-10.1,18.4l-11.4,11.2h21.9v7.4H307V277z"/>
		<path id="XMLID_24_" d="M360.7,236.8l-10.9,7.4v-8.4l12-8.5h8.6v51.5h-9.6V236.8z"/>
		<path id="XMLID_26_" d="M378.8,277l19.4-20.5c4.9-5.2,7.8-9.7,7.8-14.6c0-4.8-2.7-7.8-7.7-7.8c-5.1,0-8.4,3-9.2,10.2h-8.8
			c0.6-11.2,7.4-17.7,18.3-17.7c10.7,0,17,6.1,17,15.2c0,6.7-4,12.5-10.1,18.4l-11.4,11.2H416v7.4h-37.2V277z"/>
	</g>
</g>
<g id="Layer_2" class="st0">
	<g id="XMLID_1_" class="st1">
		<circle id="XMLID_12_" class="st3" cx="256" cy="280.2" r="37.4"/>
		<path id="XMLID_11_" class="st3" d="M256,317.7c-22.2,0-40.4,18.2-40.4,40.4v62.6h80.7V358C296.4,335.8,278.2,317.7,256,317.7z"/>
		<circle id="XMLID_8_" class="st3" cx="362.5" cy="280.2" r="37.4"/>
		<path id="XMLID_6_" class="st3" d="M362.5,317.7c-22.2,0-40.4,18.2-40.4,40.4v62.6h80.7V358C402.9,335.8,384.7,317.7,362.5,317.7z
			"/>
		<circle id="XMLID_5_" class="st3" cx="149.5" cy="280.2" r="37.4"/>
		<path id="XMLID_2_" class="st3" d="M149.5,317.7c-22.2,0-40.4,18.2-40.4,40.4v62.6h80.7V358C189.8,335.8,171.7,317.7,149.5,317.7z
			"/>
	</g>
</g>
</svg>
