<?xml version="1.0" encoding="utf-8"?>
<!-- Generator: Adobe Illustrator 19.0.0, SVG Export Plug-In . SVG Version: 6.00 Build 0)  -->
<svg version="1.1" id="Layer_1" xmlns="http://www.w3.org/2000/svg" xmlns:xlink="http://www.w3.org/1999/xlink" x="0px" y="0px"
	 viewBox="0 0 512 512" style="enable-background:new 0 0 512 512;" xml:space="preserve">
<rect id="XMLID_1_" x="366.4" y="34.7" width="37" height="148.6"/>
<rect id="XMLID_5_" x="53.1" y="34.7" width="37.6" height="148.6"/>
<polygon id="XMLID_7_" points="201.1,34.7 201.1,183.3 350.2,183.3 "/>
<polygon id="XMLID_6_" points="127.7,183.3 127.7,219.7 201.1,219.7 201.1,330.1 237.5,330.1 237.5,183.3 "/>
<rect id="XMLID_8_" x="275.7" y="181" width="37.6" height="149.1"/>
<polygon id="XMLID_10_" points="459.5,330.1 384.9,256 313.2,330.1 "/>
<polygon id="XMLID_11_" points="53.1,330.1 201.1,330.1 201.1,475.8 "/>
<rect id="XMLID_9_" x="237.5" y="330.1" width="38.2" height="145.7"/>
<polygon id="XMLID_13_" points="313.2,475.8 386.4,402.9 459.5,475.8 "/>
<polygon id="XMLID_14_" points="90.7,109 163.5,109 163.5,183.3 "/>
<path id="XMLID_15_" d="M90.7,329.7c0,0,37-3,37-37s-37-36.4-37-36.4V329.7z"/>
<path id="XMLID_16_" d="M276,109c0,0,37-3,37-37s-37-36.4-37-36.4V109z"/>
<path id="XMLID_17_" d="M91,182.7c0,0-37,3-37,37s37,36.4,37,36.4V182.7z"/>
<rect id="XMLID_2_" x="201.1" y="149.2" width="36.4" height="63"/>
</svg>
