<?xml version="1.0" encoding="utf-8"?>
<!-- Generator: Adobe Illustrator 19.0.0, SVG Export Plug-In . SVG Version: 6.00 Build 0)  -->
<svg version="1.1" id="Layer_1" xmlns="http://www.w3.org/2000/svg" xmlns:xlink="http://www.w3.org/1999/xlink" x="0px" y="0px"
	 viewBox="0 0 512 512" style="enable-background:new 0 0 512 512;" xml:space="preserve">
<style type="text/css">
	.st0{fill:none;stroke:#000000;stroke-width:7;stroke-miterlimit:10;}
	.st1{fill:none;stroke:#000000;stroke-width:4;stroke-miterlimit:10;}
</style>
<g id="XMLID_1_">
	<path id="XMLID_85_" d="M155.6,64.9h18.1l24.5,74.2h-14.3l-5.9-18.4h-28.3l-5.8,18.4h-13L155.6,64.9z M152.8,110.6h21.9l-10.9-34.4
		L152.8,110.6z"/>
</g>
<g id="XMLID_3_">
	<path id="XMLID_81_" d="M406.7,356.8h26.6c15.3,0,24.3,5.8,24.3,19.3v0.4c0,7.4-3.3,13.2-11.7,15.8c10.1,2.2,14.8,7.7,14.8,17.5
		v0.4c0,13.8-9.1,20.7-25.4,20.7h-28.5V356.8z M431.6,388c9.1,0,12.7-3.3,12.7-10.9v-0.4c0-7.1-4-10.1-12.9-10.1h-11.2V388H431.6z
		 M433.6,421.1c9.2,0,13.5-4.2,13.5-11.8v-0.4c0-7.7-4.3-11.5-14.4-11.5h-12.4v23.8H433.6z"/>
</g>
<path id="XMLID_4_" class="st0" d="M163,153.5v127.9c0,0-6,115.8,92.9,115.8s135.1,0,135.1,0"/>
<g id="XMLID_2_">
	<path id="XMLID_68_" d="M179.1,155.7h1.6l6.9,19.1l6.7-19.1h1.5l-7.3,20.7h-1.9L179.1,155.7z"/>
	<path id="XMLID_70_" d="M198,170.9v-9.6h1.5v9.5c0,3.2,1.5,4.5,4.1,4.5c2.5,0,4.9-1.6,4.9-4.8v-9.2h1.5v15.1h-1.5v-2.9
		c-0.7,1.6-2.6,3.1-5.3,3.1C200.2,176.7,198,175,198,170.9z"/>
	<path id="XMLID_72_" d="M215,154.1h1.6v22.4H215V154.1z"/>
	<path id="XMLID_74_" d="M221.4,154.1h1.5v14.4l7.4-7.1h1.8l-7.4,7.1l7.9,8.1h-1.9l-7.8-8v8h-1.5V154.1z"/>
	<path id="XMLID_76_" d="M234.2,172.4c0-3.5,3.4-4.6,7.1-4.6h3.2v-1.4c0-2.8-1.2-4.1-3.8-4.1c-2.3,0-3.9,1-4.3,3.2h-1.5
		c0.3-3.2,3-4.5,5.8-4.5c3.2,0,5.3,1.5,5.3,5.4v10h-1.5v-2.3c-1,1.5-2.6,2.5-5.1,2.5C236.3,176.7,234.2,175.2,234.2,172.4z
		 M244.5,171.5V169h-3.1c-3.2,0-5.6,0.7-5.6,3.4c0,1.9,1.2,3.1,3.7,3.1C242.2,175.4,244.5,173.8,244.5,171.5z"/>
	<path id="XMLID_79_" d="M250.6,161.3h1.5v3c0.7-1.6,2.7-3.2,5.4-3.2c3.2,0,5.4,1.7,5.4,6v9.3h-1.5V167c0-3.2-1.5-4.6-4.2-4.6
		c-2.5,0-5,1.7-5,4.9v9.2h-1.5V161.3z"/>
</g>
<g id="XMLID_6_">
	<path id="XMLID_42_" d="M249.5,363.2h11.8v1.3h-10.2v8.2h8v1.3h-8v9.8h-1.6V363.2z"/>
	<path id="XMLID_44_" d="M262.3,388.1c1.7-0.1,2.2-1,2.2-2.6v-16.6h1.5v16.5c0,2.6-1,3.9-3.8,4.1V388.1z M264.2,364.4
		c0-0.6,0.5-1.1,1.1-1.1c0.6,0,1.1,0.5,1.1,1.1c0,0.6-0.5,1.1-1.1,1.1C264.7,365.5,264.2,365,264.2,364.4z"/>
	<path id="XMLID_47_" d="M269.8,376.5v-0.2c0-4.6,2.9-7.7,6.9-7.7c3.6,0,6.6,2.4,6.6,7.4v0.5h-12c0.1,4.1,2,6.4,5.6,6.4
		c2.5,0,4.2-1,4.7-3.2h1.5c-0.6,2.9-3,4.5-6.3,4.5C272.6,384.1,269.8,381,269.8,376.5z M281.8,375.2c-0.1-3.7-2.1-5.4-5-5.4
		c-2.9,0-5,2.1-5.3,5.4H281.8z"/>
	<path id="XMLID_50_" d="M287,368.8h1.5v3.2c0.8-1.9,2.3-3.3,5.1-3.4v1.4c-2.9,0.1-5.1,1.5-5.1,5.5v8.4H287V368.8z"/>
	<path id="XMLID_52_" d="M295.3,376.6v-0.2c0-4.7,3-7.8,7-7.8c3,0,4.7,1.7,5.5,3.6v-10.6h1.5v22.4h-1.5v-3.5
		c-0.8,1.8-2.9,3.7-5.8,3.7C298.3,384.1,295.3,381.4,295.3,376.6z M307.9,376.4v-0.2c0-4.2-2.3-6.4-5.4-6.4c-3.2,0-5.6,2.3-5.6,6.4
		v0.2c0,4.1,2.3,6.3,5.4,6.3C305.3,382.8,307.9,380.6,307.9,376.4z"/>
	<path id="XMLID_55_" d="M313.9,364.4c0-0.6,0.5-1.1,1.1-1.1c0.6,0,1.1,0.5,1.1,1.1c0,0.6-0.5,1.1-1.1,1.1
		C314.4,365.5,313.9,365,313.9,364.4z M314.2,368.8h1.5v15.1h-1.5V368.8z"/>
	<path id="XMLID_58_" d="M320.6,368.8h1.5v3c0.7-1.6,2.7-3.2,5.4-3.2c3.2,0,5.4,1.7,5.4,6v9.3h-1.5v-9.4c0-3.2-1.5-4.6-4.2-4.6
		c-2.5,0-5,1.7-5,4.9v9.2h-1.5V368.8z"/>
	<path id="XMLID_60_" d="M336.6,384.8h1.6c0.4,1.9,2,3.3,5.2,3.3c3.2,0,5.5-1.5,5.5-5.2v-3.1c-0.8,1.8-2.9,3.7-5.7,3.7
		c-3.8,0-6.8-2.8-6.8-7.2V376c0-4.3,3-7.4,7-7.4c3,0,4.7,1.6,5.5,3.5v-3.3h1.5v14.1c0,4.5-3,6.5-7,6.5
		C339,389.4,337,387.2,336.6,384.8z M348.9,376.1v-0.2c0-3.8-2.3-6-5.4-6c-3.2,0-5.6,2.3-5.6,6.1v0.2c0,3.8,2.4,6,5.4,6
		C346.4,382.1,348.9,379.9,348.9,376.1z"/>
	<path id="XMLID_63_" d="M354,376.5v-0.2c0-4.6,2.9-7.7,6.9-7.7c3.6,0,6.6,2.4,6.6,7.4v0.5h-12c0.1,4.1,2,6.4,5.6,6.4
		c2.5,0,4.2-1,4.7-3.2h1.5c-0.6,2.9-3,4.5-6.3,4.5C356.8,384.1,354,381,354,376.5z M366,375.2c-0.1-3.7-2.1-5.4-5-5.4
		c-2.9,0-5,2.1-5.3,5.4H366z"/>
	<path id="XMLID_66_" d="M371.2,368.8h1.5v3c0.7-1.6,2.7-3.2,5.4-3.2c3.2,0,5.4,1.7,5.4,6v9.3h-1.5v-9.4c0-3.2-1.5-4.6-4.2-4.6
		c-2.5,0-5,1.7-5,4.9v9.2h-1.5V368.8z"/>
</g>
<g id="XMLID_8_">
	<path id="XMLID_12_" d="M46.7,402.3h5.5c4,0,7.1,1.6,7.1,5.8v0.1c0,4.3-3,5.9-7,5.9h-3.9v8.9h-1.6V402.3z M52.3,412.9
		c3.3,0,5.3-1.4,5.3-4.6v-0.1c0-3.4-2.1-4.5-5.4-4.5h-3.9v9.2H52.3z"/>
	<path id="XMLID_15_" d="M62.9,407.9h1.5v3.2c0.8-1.9,2.3-3.3,5.1-3.4v1.4c-2.9,0.1-5.1,1.5-5.1,5.5v8.4h-1.5V407.9z"/>
	<path id="XMLID_17_" d="M72.7,403.5c0-0.6,0.5-1.1,1.1-1.1s1.1,0.5,1.1,1.1c0,0.6-0.5,1.1-1.1,1.1S72.7,404.2,72.7,403.5z
		 M73,407.9h1.5V423H73V407.9z"/>
	<path id="XMLID_20_" d="M79.4,407.9h1.5v3c0.7-1.6,2.7-3.2,5.4-3.2c3.2,0,5.4,1.7,5.4,6v9.3h-1.5v-9.4c0-3.2-1.5-4.6-4.2-4.6
		c-2.5,0-5,1.7-5,4.9v9.2h-1.5V407.9z"/>
	<path id="XMLID_22_" d="M95,418.5h1.5c0.3,2.1,1.5,3.5,4.3,3.5c2.5,0,3.9-1.2,3.9-3c0-1.9-1.1-2.5-4-3.1c-3.7-0.7-5.2-1.6-5.2-4.2
		c0-2.6,2.4-4.1,5-4.1c2.7,0,4.9,1.1,5.3,4.1h-1.5c-0.4-1.9-1.6-2.8-3.8-2.8c-2.1,0-3.5,1.1-3.5,2.7c0,1.7,1,2.4,4.1,2.9
		c3.2,0.6,5.1,1.4,5.1,4.3c0,2.5-1.9,4.4-5.3,4.4C97.2,423.3,95.2,421.4,95,418.5z"/>
	<path id="XMLID_24_" d="M108.6,415.6v-0.2c0-4.6,2.9-7.7,6.9-7.7c3.6,0,6.6,2.4,6.6,7.4v0.5h-12c0.1,4.1,2,6.4,5.6,6.4
		c2.5,0,4.2-1,4.7-3.2h1.5c-0.6,2.9-3,4.5-6.3,4.5C111.4,423.3,108.6,420.2,108.6,415.6z M120.5,414.3c-0.1-3.7-2.1-5.4-5-5.4
		c-2.9,0-5,2.1-5.3,5.4H120.5z"/>
	<path id="XMLID_27_" d="M125.7,407.9h1.5v3c0.7-1.6,2.7-3.2,5.4-3.2c3.2,0,5.4,1.7,5.4,6v9.3h-1.5v-9.4c0-3.2-1.5-4.6-4.2-4.6
		c-2.5,0-5,1.7-5,4.9v9.2h-1.5V407.9z"/>
	<path id="XMLID_29_" d="M141.3,418.5h1.5c0.3,2.1,1.5,3.5,4.3,3.5c2.5,0,3.9-1.2,3.9-3c0-1.9-1.1-2.5-4-3.1
		c-3.7-0.7-5.2-1.6-5.2-4.2c0-2.6,2.4-4.1,5-4.1c2.7,0,4.9,1.1,5.3,4.1h-1.5c-0.4-1.9-1.6-2.8-3.8-2.8c-2.1,0-3.5,1.1-3.5,2.7
		c0,1.7,1,2.4,4.1,2.9c3.2,0.6,5.1,1.4,5.1,4.3c0,2.5-1.9,4.4-5.3,4.4C143.6,423.3,141.5,421.4,141.3,418.5z"/>
	<path id="XMLID_31_" d="M96.5,458.6h1.6c0.4,1.9,2,3.3,5.2,3.3c3.2,0,5.5-1.5,5.5-5.2v-3.1c-0.8,1.8-2.9,3.7-5.7,3.7
		c-3.8,0-6.8-2.8-6.8-7.2v-0.2c0-4.3,3-7.4,7-7.4c3,0,4.7,1.6,5.5,3.5v-3.3h1.5v14.1c0,4.5-3,6.5-7,6.5
		C98.9,463.2,96.9,461.1,96.5,458.6z M108.8,450v-0.2c0-3.8-2.3-6-5.4-6c-3.2,0-5.6,2.3-5.6,6.1v0.2c0,3.8,2.4,6,5.4,6
		C106.3,456,108.8,453.7,108.8,450z"/>
	<path id="XMLID_34_" d="M114,453.7c0-3.5,3.4-4.6,7.1-4.6h3.2v-1.4c0-2.8-1.2-4.1-3.8-4.1c-2.3,0-3.9,1-4.3,3.2h-1.5
		c0.3-3.2,3-4.5,5.8-4.5c3.2,0,5.3,1.5,5.3,5.4v10h-1.5v-2.3c-1,1.5-2.6,2.5-5.1,2.5C116.1,458,114,456.6,114,453.7z M124.2,452.9
		v-2.6h-3.1c-3.2,0-5.6,0.7-5.6,3.4c0,1.9,1.2,3.1,3.7,3.1C122,456.8,124.2,455.1,124.2,452.9z"/>
	<path id="XMLID_37_" d="M131,454.1v-10.2h-2.2v-1.3h2.2v-3.4h1.5v3.4h4v1.3h-4V454c0,1.8,0.9,2.7,2.3,2.7c0.8,0,1.4-0.1,1.9-0.3
		v1.3c-0.5,0.2-1.1,0.3-2,0.3C132.3,458,131,456.6,131,454.1z"/>
	<path id="XMLID_39_" d="M138.9,450.4v-0.2c0-4.6,2.9-7.7,6.9-7.7c3.6,0,6.6,2.4,6.6,7.4v0.5h-12c0.1,4.1,2,6.4,5.6,6.4
		c2.5,0,4.2-1,4.7-3.2h1.5c-0.6,2.9-3,4.5-6.3,4.5C141.7,458,138.9,454.9,138.9,450.4z M150.9,449.1c-0.1-3.7-2.1-5.4-5-5.4
		c-2.9,0-5,2.1-5.3,5.4H150.9z"/>
</g>
<line id="XMLID_5_" class="st1" x1="153.7" y1="401" x2="188" y2="367.3"/>
<circle id="XMLID_7_" cx="163" cy="153.5" r="8.5"/>
<circle id="XMLID_10_" cx="391" cy="397.2" r="8.5"/>
<circle id="XMLID_11_" cx="153.7" cy="401" r="4"/>
<g id="XMLID_9_">
</g>
<g id="XMLID_88_">
</g>
<g id="XMLID_89_">
</g>
<g id="XMLID_90_">
</g>
<g id="XMLID_91_">
</g>
<g id="XMLID_92_">
</g>
</svg>
