<?xml version="1.0" encoding="utf-8"?>
<!-- Generator: Adobe Illustrator 19.0.0, SVG Export Plug-In . SVG Version: 6.00 Build 0)  -->
<svg version="1.1" id="Layer_1" xmlns="http://www.w3.org/2000/svg" xmlns:xlink="http://www.w3.org/1999/xlink" x="0px" y="0px"
	 viewBox="0 0 512 512" style="enable-background:new 0 0 512 512;" xml:space="preserve">
<path id="XMLID_1_" d="M206.6,195.4h-111c-11.6,0-21.1-9.5-21.1-21.1v0c0-11.6,9.5-21.1,21.1-21.1h111c11.6,0,21.1,9.5,21.1,21.1v0
	C227.7,185.9,218.2,195.4,206.6,195.4z"/>
<g id="XMLID_2_">
	<path id="XMLID_18_" d="M442.6,157.9c-47.5,23.1-103.1,23.1-150.6,0c-15.3-7.4-20.8-23.6-13.7-32.7c0,0,0,0,0,0
		c7.1-9.2,21.2-10.5,32.1-5.2c35.9,17.4,77.9,17.4,113.8,0c11-5.2,25-3.9,32.1,5.2c0,0,0,0,0,0C463.4,134.3,457.8,150.5,442.6,157.9
		z"/>
</g>
<path id="XMLID_9_" d="M130.6,225.5c-48.8,0-88.4,39.6-88.4,88.4s39.6,88.4,88.4,88.4s88.4-39.6,88.4-88.4S179.4,225.5,130.6,225.5z
	 M130.6,359.3c-25.1,0-45.4-20.3-45.4-45.4s20.3-45.4,45.4-45.4s45.4,20.3,45.4,45.4S155.6,359.3,130.6,359.3z"/>
<path id="XMLID_5_" d="M386.6,225.5c-48.8,0-88.4,39.6-88.4,88.4s39.6,88.4,88.4,88.4s88.4-39.6,88.4-88.4S435.5,225.5,386.6,225.5z
	 M386.6,359.3c-25.1,0-45.4-20.3-45.4-45.4s20.3-45.4,45.4-45.4s45.4,20.3,45.4,45.4S411.7,359.3,386.6,359.3z"/>
<g id="XMLID_3_">
</g>
<g id="XMLID_4_">
</g>
<g id="XMLID_10_">
</g>
<g id="XMLID_12_">
</g>
<g id="XMLID_13_">
</g>
<g id="XMLID_14_">
</g>
</svg>
