<?xml version="1.0" encoding="utf-8"?>
<!-- Generator: Adobe Illustrator 19.0.0, SVG Export Plug-In . SVG Version: 6.00 Build 0)  -->
<svg version="1.1" xmlns="http://www.w3.org/2000/svg" xmlns:xlink="http://www.w3.org/1999/xlink" x="0px" y="0px"
	 viewBox="0 0 512 512" style="enable-background:new 0 0 512 512;" xml:space="preserve">
<style type="text/css">
	.st0{stroke:#FFFFFF;stroke-width:3;stroke-miterlimit:10;}
	.st1{display:none;fill:none;stroke:#000000;stroke-width:3;stroke-miterlimit:10;}
	.st2{fill:none;stroke:#000000;stroke-width:3;stroke-miterlimit:10;}
	.st3{display:none;}
	.st4{display:inline;}
</style>
<g id="Wheels">
	<circle id="XMLID_3_" class="st0" cx="364.8" cy="343.7" r="24"/>
	<circle id="XMLID_5_" class="st0" cx="95.9" cy="343.7" r="24"/>
	<circle id="XMLID_23_" class="st0" cx="147.7" cy="343.5" r="24"/>
	<circle id="XMLID_22_" class="st0" cx="416.1" cy="343.7" r="24"/>
</g>
<g id="Tram_Power">
	
		<rect id="XMLID_1_" x="231.4" y="120.2" transform="matrix(0.7071 0.7071 -0.7071 0.7071 172.7687 -136.6691)" class="st1" width="40" height="40"/>
	<polygon id="XMLID_11_" points="240.1,111.2 240.1,97.8 262.6,97.8 262.4,111.2 251.3,104.3 	"/>
	<path id="XMLID_24_" class="st2" d="M242.9,156.6l-15.6-15.6c-4.7-4.7-4.7-12.3,0-17l15.6-15.6c4.7-4.7,12.3-4.7,17,0l15.6,15.6
		c4.7,4.7,4.7,12.3,0,17l-15.6,15.6C255.2,161.3,247.5,161.3,242.9,156.6z"/>
	<path id="XMLID_25_" d="M301.5,176.9H201.3c-2.1,0-3.9-1.8-3.9-3.9v-9c0-2.1,1.8-3.9,3.9-3.9h100.2c2.1,0,3.9,1.8,3.9,3.9v9
		C305.4,175.1,303.6,176.9,301.5,176.9z"/>
</g>
<g id="Tram_Lines">
	<line id="XMLID_7_" class="st2" x1="171.7" y1="97.8" x2="331.6" y2="97.8"/>
	<line id="XMLID_27_" class="st2" x1="57" y1="367.7" x2="463" y2="367.7"/>
</g>
<g id="Tram_Frame">
</g>
<g id="Windows">
	<g id="XMLID_4_">
		<path id="XMLID_35_" d="M482.2,322.9V199.3l-30.8-30.8H59.8l-30,30v124.4c0,0.2,0,0.3,0,0.5l20,20c0.2,0,0.3,0,0.5,0h411.2
			c0.5,0,1,0,1.5-0.1l19-19C482.1,323.9,482.2,323.4,482.2,322.9z M138.2,267.2c0,5-4,9-9,9H80.9c-5,0-9-4-9-9v-64.4c0-5,4-9,9-9
			h48.3c5,0,9,4,9,9V267.2z M214.1,267.2c0,5-4,9-9,9h-48.3c-4.9,0-9-4-9-9v-64.4c0-5,4.1-9,9-9h48.3c5,0,9,4,9,9V267.2z
			 M289.4,267.2c0,5-4,9-9,9h-48.3c-5,0-9-4-9-9v-64.4c0-5,4-9,9-9h48.3c5,0,9,4,9,9V267.2z M364.8,267.2c0,5-4.1,9-9,9h-48.3
			c-5,0-9-4-9-9v-64.4c0-5,4-9,9-9h48.3c4.9,0,9,4,9,9V267.2z M440.1,267.2c0,5-4,9-9,9h-48.3c-5,0-9-4-9-9v-64.4c0-5,4-9,9-9h48.3
			c5,0,9,4,9,9V267.2z"/>
	</g>
</g>
<g id="People" class="st3">
	<path id="XMLID_6_" class="st4" d="M182.1,297.9h-2c-6.6,0-12-5.4-12-12v-41.2c0-6.6,5.4-12,12-12h2c6.6,0,12,5.4,12,12v41.2
		C194.1,292.5,188.7,297.9,182.1,297.9z"/>
	<circle id="XMLID_10_" class="st4" cx="181.1" cy="224.1" r="9.9"/>
	<path id="XMLID_20_" class="st4" d="M106.3,297.9h-2c-6.6,0-12-5.4-12-12v-41.2c0-6.6,5.4-12,12-12h2c6.6,0,12,5.4,12,12v41.2
		C118.3,292.5,112.9,297.9,106.3,297.9z"/>
	<circle id="XMLID_19_" class="st4" cx="105.3" cy="224.1" r="9.9"/>
	<path id="XMLID_13_" class="st4" d="M257.5,297.9h-2c-6.6,0-12-5.4-12-12v-41.2c0-6.6,5.4-12,12-12h2c6.6,0,12,5.4,12,12v41.2
		C269.5,292.5,264.1,297.9,257.5,297.9z"/>
	<circle id="XMLID_12_" class="st4" cx="256.5" cy="224.1" r="9.9"/>
	<path id="XMLID_15_" class="st4" d="M332.8,297.9h-2c-6.6,0-12-5.4-12-12v-41.2c0-6.6,5.4-12,12-12h2c6.6,0,12,5.4,12,12v41.2
		C344.8,292.5,339.4,297.9,332.8,297.9z"/>
	<circle id="XMLID_14_" class="st4" cx="331.8" cy="224.1" r="9.9"/>
	<path id="XMLID_17_" class="st4" d="M408.2,297.9h-2c-6.6,0-12-5.4-12-12v-41.2c0-6.6,5.4-12,12-12h2c6.6,0,12,5.4,12,12v41.2
		C420.2,292.5,414.8,297.9,408.2,297.9z"/>
	<circle id="XMLID_16_" class="st4" cx="407.2" cy="224.1" r="9.9"/>
</g>
</svg>
