<?xml version="1.0" encoding="utf-8"?>
<!-- Generator: Adobe Illustrator 19.0.0, SVG Export Plug-In . SVG Version: 6.00 Build 0)  -->
<svg version="1.1" id="Layer_1" xmlns="http://www.w3.org/2000/svg" xmlns:xlink="http://www.w3.org/1999/xlink" x="0px" y="0px"
	 viewBox="0 0 512 512" style="enable-background:new 0 0 512 512;" xml:space="preserve">
<path id="XMLID_6_" d="M318.2,299.9V52.5c0-1.9-1.6-3.5-3.5-3.5c-26.5,0-48,52.2-48,116.7c0,61.6,19.6,112,44.5,116.4v13
	c-0.3,0-0.5,0-0.8,0h-9.3c-4.8,0-8.7,3.9-8.7,8.7v147.9c0,4.8,3.9,8.7,8.7,8.7h9.3c4.8,0,8.7-3.9,8.7-8.7V303.7
	C319.1,302.3,318.7,301,318.2,299.9z"/>
<path id="XMLID_4_" d="M235.8,49h-0.4c-2.1,0-3.8,1.7-3.8,3.8v3.4v3.2v197.7c0,2.4-1.9,4.3-4.3,4.3s-4.3-1.9-4.3-4.3V59.4v-3.2v-3.4
	c0-2.1-1.7-3.8-3.8-3.8h-1c-2.1,0-3.8,1.7-3.8,3.8v3.4v3.2v197.7c0,2.4-1.9,4.3-4.3,4.3s-4.3-1.9-4.3-4.3v-201h0v-3.4
	c0-2.1-1.7-3.8-3.8-3.8h-1c-2.1,0-3.8,1.7-3.8,3.8v6.6c0,0,0,0,0,0v197.7c0,2.4-1.9,4.3-4.3,4.3s-4.3-1.9-4.3-4.3V59.4v-3.2v-3.4
	c0-2.1-1.7-3.8-3.8-3.8h-0.5c-2.1,0-3.8,1.7-3.8,3.8v3.4v3.2v200.5c0,12.5,10.2,22.7,22.7,22.7h4c0,0.1,0,0.2,0,0.4v12.7
	c-4.6,1.7-8,6.1-8,11.3v141.3c0,6.6,5.4,12,12,12h2.7c6.6,0,12-5.4,12-12V307c0-5.2-3.4-9.6-8-11.3V283c0-0.1,0-0.3,0-0.4
	c12.2-0.4,22-10.5,22-22.7V59.4v-3.2v-3.4C239.6,50.7,237.9,49,235.8,49z"/>
<g id="XMLID_1_">
</g>
<g id="XMLID_2_">
</g>
<g id="XMLID_3_">
</g>
<g id="XMLID_5_">
</g>
<g id="XMLID_7_">
</g>
<g id="XMLID_8_">
</g>
</svg>
